<svg xmlns="http://www.w3.org/2000/svg" width="4006" height="1608" viewBox="0 0 4006 1608" fill="none"><g opacity="0.2" clip-path="url(#clip0_4291_2599)"><path d="M330.325 698.509V416.802V137.411C330.325 62.6545 271.3 0.970321 197.427 -3.10469C171.409 -3.11371 145.39 -3.13174 119.371 -3.14075C107.642 -3.01454 89.2232 -1.34667 68.5957 7.03776C60.5629 10.3014 41.1074 19.0735 22.3011 37.8979C6.58704 53.6209 -4.90772 72.4273 -11.7144 92.9195C-29.6373 39.5297 -78.8169 0.131878 -137.337 -3.10469V-3.33008H-212.932C-290.519 -3.30303 -353.637 59.8326 -353.637 137.42V698.509C-353.637 740.359 -335.119 778.116 -305.855 803.955C-335.119 829.766 -353.637 867.505 -353.637 909.49V1470.58C-353.637 1545.33 -294.603 1607.01 -220.721 1611.1V1611.33H-145.126C-83.0542 1611.31 -30.2774 1570.87 -11.6423 1514.97C6.25347 1568.42 55.4601 1607.86 114.025 1611.1V1611.33H189.62C267.198 1611.3 330.316 1548.17 330.316 1470.58V1188.87V909.481C330.316 867.622 311.807 829.875 282.552 804.027C311.816 778.216 330.325 740.486 330.325 698.491V698.509ZM190.621 10.1842C260.211 10.7251 316.829 67.7933 316.829 137.411V344.903H289.187C286.879 344.903 284.598 344.957 282.426 345.065C219.506 341.73 168.055 292.054 162.492 229.342C162.646 156.281 162.799 83.2188 162.952 10.1571H187.069L190.621 10.1842ZM-179.033 262.474C-164.897 304.667 -131.242 337.979 -89.0495 351.791C-109.984 358.598 -129.196 370.264 -145.072 386.131C-160.759 401.836 -172.245 420.606 -179.06 441.072C-193.206 398.861 -226.852 365.612 -269.062 351.845C-248.11 345.047 -228.889 333.372 -213.013 317.496C-197.47 301.953 -185.912 283.048 -179.042 262.474H-179.033ZM-172.263 474.393C-169.666 444.669 -156.873 417.045 -135.533 395.678C-113.211 373.365 -83.6041 360.184 -52.2842 358.571C-50.4361 358.643 -48.5699 358.697 -46.6045 358.733H-18.9088V419.119H-18.8998V698.509C-18.6744 710.022 -19.8013 732.823 -32.4501 757.426C-42.1328 776.268 -54.6733 788.574 -62.9135 795.471C-82.9009 781.353 -100.842 775.448 -112.039 772.725C-122.957 770.075 -132.766 769.164 -137.355 768.749C-151.22 767.514 -163.04 767.965 -171.821 768.749C-171.974 670.634 -172.127 572.509 -172.281 474.393H-172.263ZM-11.6423 742.902C-3.69064 766.64 10.4186 787.628 28.8103 803.892C26.5925 805.848 24.4107 807.859 22.2921 809.968C6.57804 825.691 -4.91674 844.498 -11.7235 864.99C-19.6932 841.261 -33.8115 820.291 -52.2121 804.045C-33.7574 787.763 -19.594 766.748 -11.6513 742.893L-11.6423 742.902ZM-171.803 782.246H-144.143C-118.278 782.462 -94.2064 790.486 -74.1649 804.054C-94.4498 817.749 -118.864 825.754 -145.126 825.763H-171.803V782.255V782.246ZM-186.273 825.754H-213.914C-239.78 825.538 -263.851 817.514 -283.893 803.946C-263.608 790.251 -239.185 782.246 -212.932 782.237H-186.264V825.745L-186.273 825.754ZM-171.803 990.071V839.251H-145.117C-114.446 839.242 -86.0654 829.334 -62.9225 812.61C-54.9799 819.236 -42.3041 831.524 -32.4772 850.619C-22.4609 870.093 -19.9095 887.889 -19.1973 898.275C-19.0981 971.283 -18.999 1044.29 -18.8998 1117.3C-29.9167 1117.24 -40.9337 1117.2 -51.9416 1117.14C-61.9849 1116.62 -101.139 1113.4 -133.793 1081.56C-171.235 1045.05 -171.839 998.474 -171.803 990.071ZM-4.89871 898.41C-2.34732 868.614 10.4637 840.919 31.8485 819.516C34.3188 817.045 36.8882 814.728 39.5117 812.493C50.3844 820.228 66.8467 829.793 88.529 835.248C97.8601 837.592 106.479 838.764 114.025 839.26H148.473V990.08C148.203 1001.38 145.85 1046.17 112.195 1080.04C93.4154 1098.93 71.9585 1107.29 68.0909 1108.79C55.5323 1113.65 42.1803 1116.5 28.4767 1117.17C17.5138 1117.22 6.54198 1117.26 -4.42088 1117.31C-4.58316 1044.34 -4.73643 971.373 -4.89871 898.41ZM148.473 825.754H120.832C94.9301 825.538 70.8226 817.496 50.7631 803.892C71.5889 789.81 96.1111 782.228 121.796 782.228H148.464V825.754H148.473ZM162.943 782.237H187.222L190.612 782.264C216.477 782.462 240.549 790.486 260.581 804.045C240.296 817.74 215.873 825.745 189.62 825.754H162.943V782.228V782.237ZM121.805 768.74C91.8467 768.74 63.3307 778.071 39.5207 795.318C31.2895 788.412 18.785 776.115 9.11138 757.282C-3.4923 732.75 -4.63726 710.022 -4.42088 698.509V358.724H22.247C24.4287 358.724 26.5834 358.67 28.5308 358.589C91.7476 361.672 143.442 411.401 148.96 474.42C149.122 572.527 149.285 670.625 149.456 768.731H121.814L121.805 768.74ZM155.695 441.072C141.549 398.861 107.903 365.612 65.6927 351.845C86.6448 345.047 105.866 333.372 121.742 317.487C137.285 301.944 148.843 283.039 155.713 262.465C169.849 304.658 203.504 337.97 245.696 351.782C224.762 358.589 205.55 370.255 189.674 386.122C173.987 401.827 162.501 420.597 155.686 441.063L155.695 441.072ZM31.8485 47.4273C55.8839 23.3919 87.8348 10.1481 121.805 10.1481H148.473C148.626 83.2188 148.78 156.281 148.942 229.351C146.318 258.967 133.282 286.861 112.204 307.948C90.1699 329.982 61.0497 343.073 30.0454 344.975C18.5596 344.948 7.06488 344.921 -4.42088 344.903V137.42C-4.72741 126.439 -3.78078 107.75 4.99131 86.9152C7.27224 81.5059 14.9534 64.3313 31.8485 47.4363V47.4273ZM-144.143 10.1842C-134.506 10.2833 -93.3048 11.7979 -58.6943 44.2899C-19.4948 81.0822 -18.8727 129.306 -18.8998 137.42V344.912H-45.5677C-47.8757 344.912 -50.1566 344.966 -52.3293 345.074C-115.258 341.739 -166.709 292.054 -172.263 229.333C-172.109 156.281 -171.956 83.2278 -171.803 10.1842H-144.143ZM-212.941 10.1661H-186.273C-186.12 83.2188 -185.966 156.272 -185.804 229.324C-188.418 258.949 -201.455 286.861 -222.542 307.948C-244.576 329.982 -273.696 343.073 -304.701 344.975C-316.511 344.948 -328.321 344.921 -340.14 344.903V137.42C-340.14 67.2794 -283.072 10.1932 -212.941 10.1661ZM-340.14 698.509V358.724H-312.508C-310.326 358.724 -308.171 358.67 -306.224 358.589C-243.007 361.672 -191.312 411.401 -185.795 474.42C-185.777 572.527 -185.75 670.643 -185.732 768.749H-212.941C-243.611 768.758 -272.001 778.666 -295.144 795.39C-322.632 771.995 -340.14 737.195 -340.14 698.509ZM-295.162 812.538C-284.253 820.291 -267.746 829.856 -246.01 835.293C-236.769 837.601 -228.222 838.755 -220.721 839.26H-186.273V990.08C-186.66 1001.99 -189.455 1046.72 -222.551 1080.04C-238.617 1096.21 -256.648 1104.5 -260.84 1106.35C-274.589 1112.47 -289.419 1116.13 -304.71 1117.06C-316.52 1117.04 -328.33 1117.02 -340.15 1116.99V909.5C-340.15 870.688 -322.659 835.906 -295.171 812.538H-295.162ZM-213.914 1597.82C-283.514 1597.27 -340.14 1540.2 -340.14 1470.59V1130.8H-312.508C-310.461 1130.8 -308.46 1130.75 -306.612 1130.69H-306.296C-243.034 1134.2 -191.285 1191.59 -185.795 1264.31L-185.777 1264.59C-185.461 1268.73 -185.308 1272.98 -185.308 1277.2V1597.84H-213.923L-213.914 1597.82ZM-145.126 1597.83H-171.803V1277.19C-171.803 1272.72 -171.965 1268.23 -172.29 1263.83L-172.308 1263.55C-177.176 1197.76 -217.178 1143.42 -270.478 1124.37C-248.976 1117.64 -229.241 1105.81 -213.004 1089.57C-197.461 1074.02 -185.903 1055.12 -179.033 1034.54C-161.038 1088.27 -111.399 1127.62 -52.7981 1130.62H-52.3834C-50.4992 1130.71 -48.5969 1130.77 -46.5954 1130.79H-18.8998V1191.18H-18.8908V1470.58C-18.8908 1474.27 -18.7105 1477.91 -18.422 1481.53C-23.9936 1546.56 -78.6726 1597.81 -145.117 1597.83H-145.126ZM120.832 1597.82C54.9192 1597.3 0.672862 1546.07 -4.88971 1481.52C-4.61023 1477.9 -4.42088 1474.27 -4.42088 1470.59V1130.8H22.247C24.4738 1130.8 26.6646 1130.75 28.648 1130.67H28.9726C63.9798 1128.99 96.9315 1114.4 121.751 1089.58C137.294 1074.03 148.852 1055.13 155.722 1034.55C170.011 1077.22 204.261 1110.79 247.112 1124.31C225.484 1132.02 205.659 1145.6 189.377 1164.24C163.006 1194.47 148.491 1234.58 148.491 1277.19V1597.83H120.85L120.832 1597.82ZM189.629 1597.83H161.978V1277.19C161.474 1268.03 159.463 1215.35 199.537 1173.11C232.534 1138.34 273.726 1132.07 285.473 1130.74C298.257 1129.28 309.103 1129.9 316.829 1130.79V1194.24V1470.58C316.829 1540.72 259.77 1597.81 189.629 1597.82V1597.83ZM316.82 909.49V1116.98C308.291 1118.01 296.427 1118.7 282.48 1117.14C270.02 1115.75 231.777 1111.63 200.952 1081.57C163.52 1045.07 162.898 998.501 162.934 990.071V839.251H189.62C220.291 839.242 248.681 829.334 271.823 812.601C291.793 832.832 313.917 863.178 316.549 901.746C316.73 904.361 316.811 906.939 316.811 909.481L316.82 909.49ZM197.364 769.444C185.897 769.209 174.42 768.975 162.952 768.74C162.799 670.625 162.646 572.518 162.492 474.402C165.08 444.669 177.882 417.045 199.221 395.678C221.535 373.365 251.151 360.184 282.471 358.571C284.319 358.643 286.185 358.697 288.15 358.733H316.82V422.175V698.518C316.82 737.321 299.33 772.112 271.85 795.471C261.483 787.844 244.975 777.873 222.806 772.743C213.412 770.57 204.793 769.678 197.355 769.444H197.364Z" fill="#3C3C3B"></path><path d="M1001.77 698.509V416.802V137.411C1001.77 62.6545 942.746 0.970321 868.873 -3.10469C842.854 -3.11371 816.835 -3.13174 790.816 -3.14075C779.087 -3.01454 760.669 -1.34667 740.041 7.03776C732.008 10.3014 712.553 19.0735 693.746 37.8979C678.032 53.6209 666.538 72.4273 659.731 92.9195C641.808 39.5297 592.628 0.131878 534.109 -3.10469V-3.33008H458.514C380.926 -3.30303 317.809 59.8326 317.809 137.42V698.509C317.809 740.359 336.326 778.116 365.591 803.955C336.326 829.766 317.809 867.505 317.809 909.49V1470.58C317.809 1545.33 376.842 1607.01 450.724 1611.1V1611.33H526.319C588.391 1611.31 641.168 1570.87 659.803 1514.97C677.699 1568.42 726.905 1607.86 785.47 1611.1V1611.33H861.065C938.644 1611.3 1001.76 1548.17 1001.76 1470.58V1188.87V909.481C1001.76 867.622 983.252 829.875 953.997 804.027C983.261 778.216 1001.77 740.486 1001.77 698.491V698.509ZM862.066 10.1842C931.657 10.7251 988.274 67.7933 988.274 137.411V344.903H960.633C958.325 344.903 956.044 344.957 953.871 345.065C890.952 341.73 839.5 292.054 833.938 229.342C834.091 156.281 834.244 83.2188 834.397 10.1571H858.514L862.066 10.1842ZM492.412 262.474C506.548 304.667 540.203 337.979 582.396 351.791C561.462 358.598 542.25 370.264 526.373 386.131C510.686 401.836 499.201 420.606 492.385 441.072C478.24 398.861 444.594 365.612 402.383 351.845C423.335 345.047 442.556 333.372 458.433 317.496C473.975 301.953 485.533 283.048 492.403 262.474H492.412ZM499.183 474.393C501.779 444.669 514.572 417.045 535.912 395.678C558.234 373.365 587.841 360.184 619.161 358.571C621.009 358.643 622.875 358.697 624.841 358.733H652.536V419.119H652.546V698.509C652.771 710.022 651.644 732.823 638.995 757.426C629.313 776.268 616.772 788.574 608.532 795.471C588.544 781.353 570.604 775.448 559.406 772.725C548.488 770.075 538.68 769.164 534.091 768.749C520.225 767.514 508.406 767.965 499.624 768.749C499.471 670.634 499.318 572.509 499.165 474.393H499.183ZM659.803 742.902C667.755 766.64 681.864 787.628 700.256 803.892C698.038 805.848 695.856 807.859 693.737 809.968C678.023 825.691 666.529 844.498 659.722 864.99C651.752 841.261 637.634 820.291 619.233 804.045C637.688 787.763 651.851 766.748 659.794 742.893L659.803 742.902ZM499.642 782.246H527.302C553.168 782.462 577.239 790.486 597.28 804.054C576.996 817.749 552.582 825.754 526.319 825.763H499.642V782.255V782.246ZM485.173 825.754H457.531C431.665 825.538 407.594 817.514 387.553 803.946C407.837 790.251 432.261 782.246 458.514 782.237H485.182V825.745L485.173 825.754ZM499.642 990.071V839.251H526.328C556.999 839.242 585.38 829.334 608.523 812.61C616.465 819.236 629.141 831.524 638.968 850.619C648.984 870.093 651.536 887.889 652.248 898.275C652.347 971.283 652.446 1044.29 652.546 1117.3C641.529 1117.24 630.512 1117.2 619.504 1117.14C609.46 1116.62 570.306 1113.4 537.652 1081.56C500.21 1045.05 499.606 998.474 499.642 990.071ZM666.547 898.41C669.098 868.614 681.909 840.919 703.294 819.516C705.764 817.045 708.333 814.728 710.957 812.493C721.83 820.228 738.292 829.793 759.974 835.248C769.305 837.592 777.924 838.764 785.47 839.26H819.918V990.08C819.648 1001.38 817.295 1046.17 783.64 1080.04C764.861 1098.93 743.404 1107.29 739.536 1108.79C726.978 1113.65 713.626 1116.5 699.922 1117.17C688.959 1117.22 677.987 1117.26 667.024 1117.31C666.862 1044.34 666.709 971.373 666.547 898.41ZM819.918 825.754H792.277C766.375 825.538 742.268 817.496 722.208 803.892C743.034 789.81 767.556 782.228 793.242 782.228H819.909V825.754H819.918ZM834.388 782.237H858.667L862.057 782.264C887.922 782.462 911.994 790.486 932.026 804.045C911.741 817.74 887.318 825.745 861.065 825.754H834.388V782.228V782.237ZM793.251 768.74C763.292 768.74 734.776 778.071 710.966 795.318C702.735 788.412 690.23 776.115 680.557 757.282C667.953 732.75 666.808 710.022 667.024 698.509V358.724H693.692C695.874 358.724 698.029 358.67 699.976 358.589C763.193 361.672 814.888 411.401 820.405 474.42C820.568 572.527 820.73 670.625 820.901 768.731H793.26L793.251 768.74ZM827.14 441.072C812.995 398.861 779.349 365.612 737.138 351.845C758.09 345.047 777.311 333.372 793.187 317.487C808.73 301.944 820.288 283.039 827.158 262.465C841.294 304.658 874.949 337.97 917.142 351.782C896.208 358.589 876.996 370.255 861.119 386.122C845.432 401.827 833.947 420.597 827.131 441.063L827.14 441.072ZM703.294 47.4273C727.329 23.3919 759.28 10.1481 793.251 10.1481H819.918C820.072 83.2188 820.225 156.281 820.387 229.351C817.764 258.967 804.727 286.861 783.649 307.948C761.615 329.982 732.495 343.073 701.491 344.975C690.005 344.948 678.51 344.921 667.024 344.903V137.42C666.718 126.439 667.665 107.75 676.437 86.9152C678.718 81.5059 686.399 64.3313 703.294 47.4363V47.4273ZM527.302 10.1842C536.94 10.2833 578.14 11.7979 612.751 44.2899C651.95 81.0822 652.573 129.306 652.546 137.42V344.912H625.878C623.57 344.912 621.289 344.966 619.116 345.074C556.188 341.739 504.736 292.054 499.183 229.333C499.336 156.281 499.489 83.2278 499.642 10.1842H527.302ZM458.505 10.1661H485.173C485.326 83.2188 485.479 156.272 485.641 229.324C483.027 258.949 469.99 286.861 448.903 307.948C426.869 329.982 397.749 343.073 366.745 344.975C354.934 344.948 343.124 344.921 331.305 344.903V137.42C331.305 67.2794 388.373 10.1932 458.505 10.1661ZM331.305 698.509V358.724H358.937C361.119 358.724 363.274 358.67 365.221 358.589C428.438 361.672 480.133 411.401 485.65 474.42C485.668 572.527 485.695 670.643 485.713 768.749H458.505C427.834 768.758 399.444 778.666 376.301 795.39C348.813 771.995 331.305 737.195 331.305 698.509ZM376.283 812.538C387.192 820.291 403.699 829.856 425.436 835.293C434.677 837.601 443.223 838.755 450.724 839.26H485.173V990.08C484.785 1001.99 481.99 1046.72 448.894 1080.04C432.828 1096.21 414.797 1104.5 410.605 1106.35C396.857 1112.47 382.026 1116.13 366.736 1117.06C354.925 1117.04 343.115 1117.02 331.296 1116.99V909.5C331.296 870.688 348.786 835.906 376.274 812.538H376.283ZM457.531 1597.82C387.931 1597.27 331.305 1540.2 331.305 1470.59V1130.8H358.937C360.984 1130.8 362.985 1130.75 364.834 1130.69H365.149C428.411 1134.2 480.16 1191.59 485.65 1264.31L485.668 1264.59C485.984 1268.73 486.137 1272.98 486.137 1277.2V1597.84H457.522L457.531 1597.82ZM526.319 1597.83H499.642V1277.19C499.642 1272.72 499.48 1268.23 499.156 1263.83L499.138 1263.55C494.269 1197.76 454.267 1143.42 400.968 1124.37C422.47 1117.64 442.205 1105.81 458.442 1089.57C473.984 1074.02 485.542 1055.12 492.412 1034.54C510.407 1088.27 560.046 1127.62 618.647 1130.62H619.062C620.946 1130.71 622.848 1130.77 624.85 1130.79H652.546V1191.18H652.555V1470.58C652.555 1474.27 652.735 1477.91 653.023 1481.53C647.452 1546.56 592.773 1597.81 526.328 1597.83H526.319ZM792.277 1597.82C726.365 1597.3 672.118 1546.07 666.556 1481.52C666.835 1477.9 667.024 1474.27 667.024 1470.59V1130.8H693.692C695.919 1130.8 698.11 1130.75 700.093 1130.67H700.418C735.425 1128.99 768.377 1114.4 793.196 1089.58C808.739 1074.03 820.297 1055.13 827.167 1034.55C841.457 1077.22 875.706 1110.79 918.557 1124.31C896.929 1132.02 877.104 1145.6 860.822 1164.24C834.451 1194.47 819.937 1234.58 819.937 1277.19V1597.83H792.295L792.277 1597.82ZM861.074 1597.83H833.424V1277.19C832.919 1268.03 830.908 1215.35 870.982 1173.11C903.979 1138.34 945.171 1132.07 956.918 1130.74C969.702 1129.28 980.548 1129.9 988.274 1130.79V1194.24V1470.58C988.274 1540.72 931.215 1597.81 861.074 1597.82V1597.83ZM988.265 909.49V1116.98C979.736 1118.01 967.872 1118.7 953.925 1117.14C941.466 1115.75 903.222 1111.63 872.398 1081.57C834.965 1045.07 834.343 998.501 834.379 990.071V839.251H861.065C891.736 839.242 920.126 829.334 943.269 812.601C963.238 832.832 985.362 863.178 987.995 901.746C988.175 904.361 988.256 906.939 988.256 909.481L988.265 909.49ZM868.81 769.444C857.342 769.209 845.865 768.975 834.397 768.74C834.244 670.625 834.091 572.518 833.938 474.402C836.525 444.669 849.327 417.045 870.667 395.678C892.98 373.365 922.596 360.184 953.916 358.571C955.764 358.643 957.63 358.697 959.596 358.733H988.265V422.175V698.518C988.265 737.321 970.775 772.112 943.296 795.471C932.928 787.844 916.421 777.873 894.251 772.743C884.857 770.57 876.238 769.678 868.801 769.444H868.81Z" fill="#3C3C3B"></path><path d="M1673.21 698.509V416.802V137.411C1673.21 62.6545 1614.19 0.970321 1540.32 -3.10469C1514.3 -3.11371 1488.28 -3.13174 1462.26 -3.14075C1450.53 -3.01454 1432.11 -1.34667 1411.49 7.03776C1403.45 10.3014 1384 19.0735 1365.19 37.8979C1349.48 53.6209 1337.98 72.4273 1331.18 92.9195C1313.25 39.5297 1264.07 0.131878 1205.55 -3.10469V-3.33008H1129.96C1052.37 -3.30303 989.253 59.8326 989.253 137.42V698.509C989.253 740.359 1007.77 778.116 1037.04 803.955C1007.77 829.766 989.253 867.505 989.253 909.49V1470.58C989.253 1545.33 1048.29 1607.01 1122.17 1611.1V1611.33H1197.76C1259.84 1611.31 1312.61 1570.87 1331.25 1514.97C1349.14 1568.42 1398.35 1607.86 1456.91 1611.1V1611.33H1532.51C1610.09 1611.3 1673.21 1548.17 1673.21 1470.58V1188.87V909.481C1673.21 867.622 1654.7 829.875 1625.44 804.027C1654.71 778.216 1673.21 740.486 1673.21 698.491V698.509ZM1533.51 10.1842C1603.1 10.7251 1659.72 67.7933 1659.72 137.411V344.903H1632.08C1629.77 344.903 1627.49 344.957 1625.32 345.065C1562.4 341.73 1510.94 292.054 1505.38 229.342C1505.54 156.281 1505.69 83.2188 1505.84 10.1571H1529.96L1533.51 10.1842ZM1163.86 262.474C1177.99 304.667 1211.65 337.979 1253.84 351.791C1232.91 358.598 1213.69 370.264 1197.82 386.131C1182.13 401.836 1170.65 420.606 1163.83 441.072C1149.68 398.861 1116.04 365.612 1073.83 351.845C1094.78 345.047 1114 333.372 1129.88 317.496C1145.42 301.953 1156.98 283.048 1163.85 262.474H1163.86ZM1170.63 474.393C1173.22 444.669 1186.02 417.045 1207.36 395.678C1229.68 373.365 1259.29 360.184 1290.61 358.571C1292.45 358.643 1294.32 358.697 1296.29 358.733H1323.98V419.119H1323.99V698.509C1324.22 710.022 1323.09 732.823 1310.44 757.426C1300.76 776.268 1288.22 788.574 1279.98 795.471C1259.99 781.353 1242.05 775.448 1230.85 772.725C1219.93 770.075 1210.12 769.164 1205.54 768.749C1191.67 767.514 1179.85 767.965 1171.07 768.749C1170.92 670.634 1170.76 572.509 1170.61 474.393H1170.63ZM1331.25 742.902C1339.2 766.64 1353.31 787.628 1371.7 803.892C1369.48 805.848 1367.3 807.859 1365.18 809.968C1349.47 825.691 1337.97 844.498 1331.17 864.99C1323.2 841.261 1309.08 820.291 1290.68 804.045C1309.13 787.763 1323.3 766.748 1331.24 742.893L1331.25 742.902ZM1171.09 782.246H1198.75C1224.61 782.462 1248.68 790.486 1268.72 804.054C1248.44 817.749 1224.03 825.754 1197.76 825.763H1171.09V782.255V782.246ZM1156.62 825.754H1128.98C1103.11 825.538 1079.04 817.514 1059 803.946C1079.28 790.251 1103.7 782.246 1129.96 782.237H1156.63V825.745L1156.62 825.754ZM1171.09 990.071V839.251H1197.77C1228.44 839.242 1256.82 829.334 1279.97 812.61C1287.91 819.236 1300.59 831.524 1310.41 850.619C1320.43 870.093 1322.98 887.889 1323.69 898.275C1323.79 971.283 1323.89 1044.29 1323.99 1117.3C1312.97 1117.24 1301.96 1117.2 1290.95 1117.14C1280.9 1116.62 1241.75 1113.4 1209.1 1081.56C1171.65 1045.05 1171.05 998.474 1171.09 990.071ZM1337.99 898.41C1340.54 868.614 1353.35 840.919 1374.74 819.516C1377.21 817.045 1379.78 814.728 1382.4 812.493C1393.27 820.228 1409.74 829.793 1431.42 835.248C1440.75 837.592 1449.37 838.764 1456.91 839.26H1491.36V990.08C1491.09 1001.38 1488.74 1046.17 1455.08 1080.04C1436.31 1098.93 1414.85 1107.29 1410.98 1108.79C1398.42 1113.65 1385.07 1116.5 1371.37 1117.17C1360.4 1117.22 1349.43 1117.26 1338.47 1117.31C1338.31 1044.34 1338.15 971.373 1337.99 898.41ZM1491.36 825.754H1463.72C1437.82 825.538 1413.71 817.496 1393.65 803.892C1414.48 789.81 1439 782.228 1464.69 782.228H1491.35V825.754H1491.36ZM1505.83 782.237H1530.11L1533.5 782.264C1559.37 782.462 1583.44 790.486 1603.47 804.045C1583.19 817.74 1558.76 825.745 1532.51 825.754H1505.83V782.228V782.237ZM1464.69 768.74C1434.74 768.74 1406.22 778.071 1382.41 795.318C1374.18 788.412 1361.67 776.115 1352 757.282C1339.4 732.75 1338.25 710.022 1338.47 698.509V358.724H1365.14C1367.32 358.724 1369.47 358.67 1371.42 358.589C1434.64 361.672 1486.33 411.401 1491.85 474.42C1492.01 572.527 1492.17 670.625 1492.35 768.731H1464.7L1464.69 768.74ZM1498.58 441.072C1484.44 398.861 1450.79 365.612 1408.58 351.845C1429.53 345.047 1448.76 333.372 1464.63 317.487C1480.17 301.944 1491.73 283.039 1498.6 262.465C1512.74 304.658 1546.39 337.97 1588.59 351.782C1567.65 358.589 1548.44 370.255 1532.56 386.122C1516.88 401.827 1505.39 420.597 1498.58 441.063L1498.58 441.072ZM1374.74 47.4273C1398.77 23.3919 1430.72 10.1481 1464.69 10.1481H1491.36C1491.52 83.2188 1491.67 156.281 1491.83 229.351C1489.21 258.967 1476.17 286.861 1455.09 307.948C1433.06 329.982 1403.94 343.073 1372.94 344.975C1361.45 344.948 1349.95 344.921 1338.47 344.903V137.42C1338.16 126.439 1339.11 107.75 1347.88 86.9152C1350.16 81.5059 1357.84 64.3313 1374.74 47.4363V47.4273ZM1198.75 10.1842C1208.38 10.2833 1249.58 11.7979 1284.2 44.2899C1323.39 81.0822 1324.02 129.306 1323.99 137.42V344.912H1297.32C1295.01 344.912 1292.73 344.966 1290.56 345.074C1227.63 341.739 1176.18 292.054 1170.63 229.333C1170.78 156.281 1170.93 83.2278 1171.09 10.1842H1198.75ZM1129.95 10.1661H1156.62C1156.77 83.2188 1156.92 156.272 1157.09 229.324C1154.47 258.949 1141.43 286.861 1120.35 307.948C1098.31 329.982 1069.19 343.073 1038.19 344.975C1026.38 344.948 1014.57 344.921 1002.75 344.903V137.42C1002.75 67.2794 1059.82 10.1932 1129.95 10.1661ZM1002.75 698.509V358.724H1030.38C1032.56 358.724 1034.72 358.67 1036.67 358.589C1099.88 361.672 1151.58 411.401 1157.09 474.42C1157.11 572.527 1157.14 670.643 1157.16 768.749H1129.95C1099.28 768.758 1070.89 778.666 1047.75 795.39C1020.26 771.995 1002.75 737.195 1002.75 698.509ZM1047.73 812.538C1058.64 820.291 1075.14 829.856 1096.88 835.293C1106.12 837.601 1114.67 838.755 1122.17 839.26H1156.62V990.08C1156.23 1001.99 1153.43 1046.72 1120.34 1080.04C1104.27 1096.21 1086.24 1104.5 1082.05 1106.35C1068.3 1112.47 1053.47 1116.13 1038.18 1117.06C1026.37 1117.04 1014.56 1117.02 1002.74 1116.99V909.5C1002.74 870.688 1020.23 835.906 1047.72 812.538H1047.73ZM1128.98 1597.82C1059.38 1597.27 1002.75 1540.2 1002.75 1470.59V1130.8H1030.38C1032.43 1130.8 1034.43 1130.75 1036.28 1130.69H1036.59C1099.86 1134.2 1151.6 1191.59 1157.09 1264.31L1157.11 1264.59C1157.43 1268.73 1157.58 1272.98 1157.58 1277.2V1597.84H1128.97L1128.98 1597.82ZM1197.76 1597.83H1171.09V1277.19C1171.09 1272.72 1170.92 1268.23 1170.6 1263.83L1170.58 1263.55C1165.71 1197.76 1125.71 1143.42 1072.41 1124.37C1093.91 1117.64 1113.65 1105.81 1129.89 1089.57C1145.43 1074.02 1156.99 1055.12 1163.86 1034.54C1181.85 1088.27 1231.49 1127.62 1290.09 1130.62H1290.51C1292.39 1130.71 1294.29 1130.77 1296.29 1130.79H1323.99V1191.18H1324V1470.58C1324 1474.27 1324.18 1477.91 1324.47 1481.53C1318.9 1546.56 1264.22 1597.81 1197.77 1597.83H1197.76ZM1463.72 1597.82C1397.81 1597.3 1343.56 1546.07 1338 1481.52C1338.28 1477.9 1338.47 1474.27 1338.47 1470.59V1130.8H1365.14C1367.36 1130.8 1369.55 1130.75 1371.54 1130.67H1371.86C1406.87 1128.99 1439.82 1114.4 1464.64 1089.58C1480.18 1074.03 1491.74 1055.13 1498.61 1034.55C1512.9 1077.22 1547.15 1110.79 1590 1124.31C1568.37 1132.02 1548.55 1145.6 1532.27 1164.24C1505.9 1194.47 1491.38 1234.58 1491.38 1277.19V1597.83H1463.74L1463.72 1597.82ZM1532.52 1597.83H1504.87V1277.19C1504.36 1268.03 1502.35 1215.35 1542.43 1173.11C1575.42 1138.34 1616.62 1132.07 1628.36 1130.74C1641.15 1129.28 1651.99 1129.9 1659.72 1130.79V1194.24V1470.58C1659.72 1540.72 1602.66 1597.81 1532.52 1597.82V1597.83ZM1659.71 909.49V1116.98C1651.18 1118.01 1639.32 1118.7 1625.37 1117.14C1612.91 1115.75 1574.67 1111.63 1543.84 1081.57C1506.41 1045.07 1505.79 998.501 1505.82 990.071V839.251H1532.51C1563.18 839.242 1591.57 829.334 1614.71 812.601C1634.68 832.832 1656.81 863.178 1659.44 901.746C1659.62 904.361 1659.7 906.939 1659.7 909.481L1659.71 909.49ZM1540.25 769.444C1528.79 769.209 1517.31 768.975 1505.84 768.74C1505.69 670.625 1505.54 572.518 1505.38 474.402C1507.97 444.669 1520.77 417.045 1542.11 395.678C1564.42 373.365 1594.04 360.184 1625.36 358.571C1627.21 358.643 1629.07 358.697 1631.04 358.733H1659.71V422.175V698.518C1659.71 737.321 1642.22 772.112 1614.74 795.471C1604.37 787.844 1587.86 777.873 1565.7 772.743C1556.3 770.57 1547.68 769.678 1540.24 769.444H1540.25Z" fill="#3C3C3B"></path><path d="M2344.66 698.509V416.802V137.411C2344.66 62.6545 2285.64 0.970321 2211.76 -3.10469C2185.74 -3.11371 2159.72 -3.13174 2133.71 -3.14075C2121.98 -3.01454 2103.56 -1.34667 2082.93 7.03776C2074.9 10.3014 2055.44 19.0735 2036.64 37.8979C2020.92 53.6209 2009.43 72.4273 2002.62 92.9195C1984.7 39.5297 1935.52 0.131878 1877 -3.10469V-3.33008H1801.4C1723.82 -3.30303 1660.7 59.8326 1660.7 137.42V698.509C1660.7 740.359 1679.22 778.116 1708.48 803.955C1679.22 829.766 1660.7 867.505 1660.7 909.49V1470.58C1660.7 1545.33 1719.73 1607.01 1793.61 1611.1V1611.33H1869.21C1931.28 1611.31 1984.06 1570.87 2002.69 1514.97C2020.59 1568.42 2069.8 1607.86 2128.36 1611.1V1611.33H2203.95C2281.53 1611.3 2344.65 1548.17 2344.65 1470.58V1188.87V909.481C2344.65 867.622 2326.14 829.875 2296.89 804.027C2326.15 778.216 2344.66 740.486 2344.66 698.491V698.509ZM2204.96 10.1842C2274.55 10.7251 2331.16 67.7933 2331.16 137.411V344.903H2303.52C2301.21 344.903 2298.93 344.957 2296.76 345.065C2233.84 341.73 2182.39 292.054 2176.83 229.342C2176.98 156.281 2177.13 83.2188 2177.29 10.1571H2201.4L2204.96 10.1842ZM1835.3 262.474C1849.44 304.667 1883.09 337.979 1925.29 351.791C1904.35 358.598 1885.14 370.264 1869.26 386.131C1853.58 401.836 1842.09 420.606 1835.27 441.072C1821.13 398.861 1787.48 365.612 1745.27 351.845C1766.22 345.047 1785.45 333.372 1801.32 317.496C1816.86 301.953 1828.42 283.048 1835.29 262.474H1835.3ZM1842.07 474.393C1844.67 444.669 1857.46 417.045 1878.8 395.678C1901.12 373.365 1930.73 360.184 1962.05 358.571C1963.9 358.643 1965.77 358.697 1967.73 358.733H1995.43V419.119H1995.44V698.509C1995.66 710.022 1994.53 732.823 1981.88 757.426C1972.2 776.268 1959.66 788.574 1951.42 795.471C1931.43 781.353 1913.49 775.448 1902.3 772.725C1891.38 770.075 1881.57 769.164 1876.98 768.749C1863.11 767.514 1851.3 767.965 1842.51 768.749C1842.36 670.634 1842.21 572.509 1842.05 474.393H1842.07ZM2002.69 742.902C2010.64 766.64 2024.75 787.628 2043.15 803.892C2040.93 805.848 2038.75 807.859 2036.63 809.968C2020.91 825.691 2009.42 844.498 2002.61 864.99C1994.64 841.261 1980.52 820.291 1962.12 804.045C1980.58 787.763 1994.74 766.748 2002.68 742.893L2002.69 742.902ZM1842.53 782.246H1870.19C1896.06 782.462 1920.13 790.486 1940.17 804.054C1919.89 817.749 1895.47 825.754 1869.21 825.763H1842.53V782.255V782.246ZM1828.06 825.754H1800.42C1774.56 825.538 1750.48 817.514 1730.44 803.946C1750.73 790.251 1775.15 782.246 1801.4 782.237H1828.07V825.745L1828.06 825.754ZM1842.53 990.071V839.251H1869.22C1899.89 839.242 1928.27 829.334 1951.41 812.61C1959.36 819.236 1972.03 831.524 1981.86 850.619C1991.87 870.093 1994.43 887.889 1995.14 898.275C1995.24 971.283 1995.34 1044.29 1995.44 1117.3C1984.42 1117.24 1973.4 1117.2 1962.39 1117.14C1952.35 1116.62 1913.2 1113.4 1880.54 1081.56C1843.1 1045.05 1842.5 998.474 1842.53 990.071ZM2009.44 898.41C2011.99 868.614 2024.8 840.919 2046.18 819.516C2048.65 817.045 2051.22 814.728 2053.85 812.493C2064.72 820.228 2081.18 829.793 2102.86 835.248C2112.2 837.592 2120.81 838.764 2128.36 839.26H2162.81V990.08C2162.54 1001.38 2160.18 1046.17 2126.53 1080.04C2107.75 1098.93 2086.29 1107.29 2082.43 1108.79C2069.87 1113.65 2056.52 1116.5 2042.81 1117.17C2031.85 1117.22 2020.88 1117.26 2009.91 1117.31C2009.75 1044.34 2009.6 971.373 2009.44 898.41ZM2162.81 825.754H2135.17C2109.27 825.538 2085.16 817.496 2065.1 803.892C2085.92 789.81 2110.45 782.228 2136.13 782.228H2162.8V825.754H2162.81ZM2177.28 782.237H2201.56L2204.95 782.264C2230.81 782.462 2254.88 790.486 2274.92 804.045C2254.63 817.74 2230.21 825.745 2203.95 825.754H2177.28V782.228V782.237ZM2136.14 768.74C2106.18 768.74 2077.67 778.071 2053.86 795.318C2045.62 788.412 2033.12 776.115 2023.45 757.282C2010.84 732.75 2009.7 710.022 2009.91 698.509V358.724H2036.58C2038.76 358.724 2040.92 358.67 2042.87 358.589C2106.08 361.672 2157.78 411.401 2163.29 474.42C2163.46 572.527 2163.62 670.625 2163.79 768.731H2136.15L2136.14 768.74ZM2170.03 441.072C2155.88 398.861 2122.24 365.612 2080.03 351.845C2100.98 345.047 2120.2 333.372 2136.08 317.487C2151.62 301.944 2163.18 283.039 2170.05 262.465C2184.18 304.658 2217.84 337.97 2260.03 351.782C2239.1 358.589 2219.89 370.255 2204.01 386.122C2188.32 401.827 2176.84 420.597 2170.02 441.063L2170.03 441.072ZM2046.18 47.4273C2070.22 23.3919 2102.17 10.1481 2136.14 10.1481H2162.81C2162.96 83.2188 2163.11 156.281 2163.28 229.351C2160.65 258.967 2147.62 286.861 2126.54 307.948C2104.5 329.982 2075.38 343.073 2044.38 344.975C2032.89 344.948 2021.4 344.921 2009.91 344.903V137.42C2009.61 126.439 2010.55 107.75 2019.33 86.9152C2021.61 81.5059 2029.29 64.3313 2046.18 47.4363V47.4273ZM1870.19 10.1842C1879.83 10.2833 1921.03 11.7979 1955.64 44.2899C1994.84 81.0822 1995.46 129.306 1995.44 137.42V344.912H1968.77C1966.46 344.912 1964.18 344.966 1962.01 345.074C1899.08 341.739 1847.63 292.054 1842.07 229.333C1842.23 156.281 1842.38 83.2278 1842.53 10.1842H1870.19ZM1801.39 10.1661H1828.06C1828.22 83.2188 1828.37 156.272 1828.53 229.324C1825.92 258.949 1812.88 286.861 1791.79 307.948C1769.76 329.982 1740.64 343.073 1709.63 344.975C1697.82 344.948 1686.01 344.921 1674.19 344.903V137.42C1674.19 67.2794 1731.26 10.1932 1801.39 10.1661ZM1674.19 698.509V358.724H1701.83C1704.01 358.724 1706.16 358.67 1708.11 358.589C1771.33 361.672 1823.02 411.401 1828.54 474.42C1828.56 572.527 1828.59 670.643 1828.6 768.749H1801.39C1770.72 768.758 1742.33 778.666 1719.19 795.39C1691.7 771.995 1674.19 737.195 1674.19 698.509ZM1719.17 812.538C1730.08 820.291 1746.59 829.856 1768.33 835.293C1777.57 837.601 1786.11 838.755 1793.61 839.26H1828.06V990.08C1827.67 1001.99 1824.88 1046.72 1791.78 1080.04C1775.72 1096.21 1757.69 1104.5 1753.49 1106.35C1739.75 1112.47 1724.92 1116.13 1709.63 1117.06C1697.82 1117.04 1686 1117.02 1674.19 1116.99V909.5C1674.19 870.688 1691.68 835.906 1719.16 812.538H1719.17ZM1800.42 1597.82C1730.82 1597.27 1674.19 1540.2 1674.19 1470.59V1130.8H1701.83C1703.87 1130.8 1705.87 1130.75 1707.72 1130.69H1708.04C1771.3 1134.2 1823.05 1191.59 1828.54 1264.31L1828.56 1264.59C1828.87 1268.73 1829.03 1272.98 1829.03 1277.2V1597.84H1800.41L1800.42 1597.82ZM1869.21 1597.83H1842.53V1277.19C1842.53 1272.72 1842.37 1268.23 1842.05 1263.83L1842.03 1263.55C1837.16 1197.76 1797.16 1143.42 1743.86 1124.37C1765.36 1117.64 1785.09 1105.81 1801.33 1089.57C1816.87 1074.02 1828.43 1055.12 1835.3 1034.54C1853.3 1088.27 1902.94 1127.62 1961.54 1130.62H1961.95C1963.84 1130.71 1965.74 1130.77 1967.74 1130.79H1995.44V1191.18H1995.44V1470.58C1995.44 1474.27 1995.62 1477.91 1995.91 1481.53C1990.34 1546.56 1935.66 1597.81 1869.22 1597.83H1869.21ZM2135.17 1597.82C2069.25 1597.3 2015.01 1546.07 2009.45 1481.52C2009.72 1477.9 2009.91 1474.27 2009.91 1470.59V1130.8H2036.58C2038.81 1130.8 2041 1130.75 2042.98 1130.67H2043.31C2078.31 1128.99 2111.27 1114.4 2136.09 1089.58C2151.63 1074.03 2163.19 1055.13 2170.06 1034.55C2184.35 1077.22 2218.6 1110.79 2261.45 1124.31C2239.82 1132.02 2219.99 1145.6 2203.71 1164.24C2177.34 1194.47 2162.83 1234.58 2162.83 1277.19V1597.83H2135.18L2135.17 1597.82ZM2203.96 1597.83H2176.31V1277.19C2175.81 1268.03 2173.8 1215.35 2213.87 1173.11C2246.87 1138.34 2288.06 1132.07 2299.81 1130.74C2312.59 1129.28 2323.44 1129.9 2331.16 1130.79V1194.24V1470.58C2331.16 1540.72 2274.1 1597.81 2203.96 1597.82V1597.83ZM2331.15 909.49V1116.98C2322.63 1118.01 2310.76 1118.7 2296.81 1117.14C2284.36 1115.75 2246.11 1111.63 2215.29 1081.57C2177.86 1045.07 2177.23 998.501 2177.27 990.071V839.251H2203.95C2234.63 839.242 2263.02 829.334 2286.16 812.601C2306.13 832.832 2328.25 863.178 2330.88 901.746C2331.06 904.361 2331.15 906.939 2331.15 909.481L2331.15 909.49ZM2211.7 769.444C2200.23 769.209 2188.75 768.975 2177.29 768.74C2177.13 670.625 2176.98 572.518 2176.83 474.402C2179.41 444.669 2192.22 417.045 2213.56 395.678C2235.87 373.365 2265.49 360.184 2296.81 358.571C2298.65 358.643 2300.52 358.697 2302.49 358.733H2331.15V422.175V698.518C2331.15 737.321 2313.66 772.112 2286.19 795.471C2275.82 787.844 2259.31 777.873 2237.14 772.743C2227.75 770.57 2219.13 769.678 2211.69 769.444H2211.7Z" fill="#3C3C3B"></path><path d="M3016.11 698.509V416.802V137.411C3016.11 62.6545 2957.08 0.970321 2883.21 -3.10469C2857.19 -3.11371 2831.17 -3.13174 2805.15 -3.14075C2793.42 -3.01454 2775 -1.34667 2754.38 7.03776C2746.34 10.3014 2726.89 19.0735 2708.08 37.8979C2692.37 53.6209 2680.87 72.4273 2674.07 92.9195C2656.14 39.5297 2606.96 0.131878 2548.44 -3.10469V-3.33008H2472.85C2395.26 -3.30303 2332.14 59.8326 2332.14 137.42V698.509C2332.14 740.359 2350.66 778.116 2379.93 803.955C2350.66 829.766 2332.14 867.505 2332.14 909.49V1470.58C2332.14 1545.33 2391.18 1607.01 2465.06 1611.1V1611.33H2540.65C2602.73 1611.31 2655.5 1570.87 2674.14 1514.97C2692.03 1568.42 2741.24 1607.86 2799.81 1611.1V1611.33H2875.4C2952.98 1611.3 3016.1 1548.17 3016.1 1470.58V1188.87V909.481C3016.1 867.622 2997.59 829.875 2968.33 804.027C2997.6 778.216 3016.11 740.486 3016.11 698.491V698.509ZM2876.4 10.1842C2945.99 10.7251 3002.61 67.7933 3002.61 137.411V344.903H2974.97C2972.66 344.903 2970.38 344.957 2968.21 345.065C2905.29 341.73 2853.84 292.054 2848.27 229.342C2848.43 156.281 2848.58 83.2188 2848.73 10.1571H2872.85L2876.4 10.1842ZM2506.75 262.474C2520.88 304.667 2554.54 337.979 2596.73 351.791C2575.8 358.598 2556.58 370.264 2540.71 386.131C2525.02 401.836 2513.54 420.606 2506.72 441.072C2492.57 398.861 2458.93 365.612 2416.72 351.845C2437.67 345.047 2456.89 333.372 2472.77 317.496C2488.31 301.953 2499.87 283.048 2506.74 262.474H2506.75ZM2513.52 474.393C2516.11 444.669 2528.91 417.045 2550.25 395.678C2572.57 373.365 2602.18 360.184 2633.5 358.571C2635.34 358.643 2637.21 358.697 2639.18 358.733H2666.87V419.119H2666.88V698.509C2667.11 710.022 2665.98 732.823 2653.33 757.426C2643.65 776.268 2631.11 788.574 2622.87 795.471C2602.88 781.353 2584.94 775.448 2573.74 772.725C2562.82 770.075 2553.01 769.164 2548.43 768.749C2534.56 767.514 2522.74 767.965 2513.96 768.749C2513.81 670.634 2513.65 572.509 2513.5 474.393H2513.52ZM2674.14 742.902C2682.09 766.64 2696.2 787.628 2714.59 803.892C2712.37 805.848 2710.19 807.859 2708.07 809.968C2692.36 825.691 2680.86 844.498 2674.06 864.99C2666.09 841.261 2651.97 820.291 2633.57 804.045C2652.02 787.763 2666.19 766.748 2674.13 742.893L2674.14 742.902ZM2513.98 782.246H2541.64C2567.5 782.462 2591.57 790.486 2611.62 804.054C2591.33 817.749 2566.92 825.754 2540.65 825.763H2513.98V782.255V782.246ZM2499.51 825.754H2471.87C2446 825.538 2421.93 817.514 2401.89 803.946C2422.17 790.251 2446.6 782.246 2472.85 782.237H2499.52V825.745L2499.51 825.754ZM2513.98 990.071V839.251H2540.66C2571.33 839.242 2599.71 829.334 2622.86 812.61C2630.8 819.236 2643.48 831.524 2653.3 850.619C2663.32 870.093 2665.87 887.889 2666.58 898.275C2666.68 971.283 2666.78 1044.29 2666.88 1117.3C2655.86 1117.24 2644.85 1117.2 2633.84 1117.14C2623.8 1116.62 2584.64 1113.4 2551.99 1081.56C2514.55 1045.05 2513.94 998.474 2513.98 990.071ZM2680.88 898.41C2683.43 868.614 2696.24 840.919 2717.63 819.516C2720.1 817.045 2722.67 814.728 2725.29 812.493C2736.16 820.228 2752.63 829.793 2774.31 835.248C2783.64 837.592 2792.26 838.764 2799.81 839.26H2834.25V990.08C2833.98 1001.38 2831.63 1046.17 2797.98 1080.04C2779.2 1098.93 2757.74 1107.29 2753.87 1108.79C2741.31 1113.65 2727.96 1116.5 2714.26 1117.17C2703.29 1117.22 2692.32 1117.26 2681.36 1117.31C2681.2 1044.34 2681.04 971.373 2680.88 898.41ZM2834.25 825.754H2806.61C2780.71 825.538 2756.6 817.496 2736.54 803.892C2757.37 789.81 2781.89 782.228 2807.58 782.228H2834.24V825.754H2834.25ZM2848.72 782.237H2873L2876.39 782.264C2902.26 782.462 2926.33 790.486 2946.36 804.045C2926.08 817.74 2901.65 825.745 2875.4 825.754H2848.72V782.228V782.237ZM2807.59 768.74C2777.63 768.74 2749.11 778.071 2725.3 795.318C2717.07 788.412 2704.57 776.115 2694.89 757.282C2682.29 732.75 2681.14 710.022 2681.36 698.509V358.724H2708.03C2710.21 358.724 2712.36 358.67 2714.31 358.589C2777.53 361.672 2829.22 411.401 2834.74 474.42C2834.9 572.527 2835.06 670.625 2835.24 768.731H2807.59L2807.59 768.74ZM2841.47 441.072C2827.33 398.861 2793.68 365.612 2751.47 351.845C2772.43 345.047 2791.65 333.372 2807.52 317.487C2823.07 301.944 2834.62 283.039 2841.49 262.465C2855.63 304.658 2889.28 337.97 2931.48 351.782C2910.54 358.589 2891.33 370.255 2875.45 386.122C2859.77 401.827 2848.28 420.597 2841.47 441.063L2841.47 441.072ZM2717.63 47.4273C2741.66 23.3919 2773.62 10.1481 2807.59 10.1481H2834.25C2834.41 83.2188 2834.56 156.281 2834.72 229.351C2832.1 258.967 2819.06 286.861 2797.98 307.948C2775.95 329.982 2746.83 343.073 2715.83 344.975C2704.34 344.948 2692.85 344.921 2681.36 344.903V137.42C2681.05 126.439 2682 107.75 2690.77 86.9152C2693.05 81.5059 2700.73 64.3313 2717.63 47.4363V47.4273ZM2541.64 10.1842C2551.27 10.2833 2592.48 11.7979 2627.09 44.2899C2666.29 81.0822 2666.91 129.306 2666.88 137.42V344.912H2640.21C2637.9 344.912 2635.62 344.966 2633.45 345.074C2570.52 341.739 2519.07 292.054 2513.52 229.333C2513.67 156.281 2513.82 83.2278 2513.98 10.1842H2541.64ZM2472.84 10.1661H2499.51C2499.66 83.2188 2499.81 156.272 2499.98 229.324C2497.36 258.949 2484.33 286.861 2463.24 307.948C2441.2 329.982 2412.08 343.073 2381.08 344.975C2369.27 344.948 2357.46 344.921 2345.64 344.903V137.42C2345.64 67.2794 2402.71 10.1932 2472.84 10.1661ZM2345.64 698.509V358.724H2373.27C2375.45 358.724 2377.61 358.67 2379.56 358.589C2442.77 361.672 2494.47 411.401 2499.99 474.42C2500 572.527 2500.03 670.643 2500.05 768.749H2472.84C2442.17 768.758 2413.78 778.666 2390.64 795.39C2363.15 771.995 2345.64 737.195 2345.64 698.509ZM2390.62 812.538C2401.53 820.291 2418.03 829.856 2439.77 835.293C2449.01 837.601 2457.56 838.755 2465.06 839.26H2499.51V990.08C2499.12 1001.99 2496.33 1046.72 2463.23 1080.04C2447.16 1096.21 2429.13 1104.5 2424.94 1106.35C2411.19 1112.47 2396.36 1116.13 2381.07 1117.06C2369.26 1117.04 2357.45 1117.02 2345.63 1116.99V909.5C2345.63 870.688 2363.12 835.906 2390.61 812.538H2390.62ZM2471.87 1597.82C2402.27 1597.27 2345.64 1540.2 2345.64 1470.59V1130.8H2373.27C2375.32 1130.8 2377.32 1130.75 2379.17 1130.69H2379.48C2442.75 1134.2 2494.49 1191.59 2499.99 1264.31L2500 1264.59C2500.32 1268.73 2500.47 1272.98 2500.47 1277.2V1597.84H2471.86L2471.87 1597.82ZM2540.65 1597.83H2513.98V1277.19C2513.98 1272.72 2513.82 1268.23 2513.49 1263.83L2513.47 1263.55C2508.6 1197.76 2468.6 1143.42 2415.3 1124.37C2436.8 1117.64 2456.54 1105.81 2472.78 1089.57C2488.32 1074.02 2499.88 1055.12 2506.75 1034.54C2524.74 1088.27 2574.38 1127.62 2632.98 1130.62H2633.4C2635.28 1130.71 2637.18 1130.77 2639.18 1130.79H2666.88V1191.18H2666.89V1470.58C2666.89 1474.27 2667.07 1477.91 2667.36 1481.53C2661.79 1546.56 2607.11 1597.81 2540.66 1597.83H2540.65ZM2806.61 1597.82C2740.7 1597.3 2686.45 1546.07 2680.89 1481.52C2681.17 1477.9 2681.36 1474.27 2681.36 1470.59V1130.8H2708.03C2710.25 1130.8 2712.44 1130.75 2714.43 1130.67H2714.75C2749.76 1128.99 2782.71 1114.4 2807.53 1089.58C2823.07 1074.03 2834.63 1055.13 2841.5 1034.55C2855.79 1077.22 2890.04 1110.79 2932.89 1124.31C2911.26 1132.02 2891.44 1145.6 2875.16 1164.24C2848.79 1194.47 2834.27 1234.58 2834.27 1277.19V1597.83H2806.63L2806.61 1597.82ZM2875.41 1597.83H2847.76V1277.19C2847.25 1268.03 2845.24 1215.35 2885.32 1173.11C2918.31 1138.34 2959.51 1132.07 2971.25 1130.74C2984.04 1129.28 2994.88 1129.9 3002.61 1130.79V1194.24V1470.58C3002.61 1540.72 2945.55 1597.81 2875.41 1597.82V1597.83ZM3002.6 909.49V1116.98C2994.07 1118.01 2982.21 1118.7 2968.26 1117.14C2955.8 1115.75 2917.56 1111.63 2886.73 1081.57C2849.3 1045.07 2848.68 998.501 2848.71 990.071V839.251H2875.4C2906.07 839.242 2934.46 829.334 2957.6 812.601C2977.57 832.832 2999.7 863.178 3002.33 901.746C3002.51 904.361 3002.59 906.939 3002.59 909.481L3002.6 909.49ZM2883.14 769.444C2871.68 769.209 2860.2 768.975 2848.73 768.74C2848.58 670.625 2848.43 572.518 2848.27 474.402C2850.86 444.669 2863.66 417.045 2885 395.678C2907.32 373.365 2936.93 360.184 2968.25 358.571C2970.1 358.643 2971.97 358.697 2973.93 358.733H3002.6V422.175V698.518C3002.6 737.321 2985.11 772.112 2957.63 795.471C2947.26 787.844 2930.76 777.873 2908.59 772.743C2899.19 770.57 2890.57 769.678 2883.14 769.444H2883.14Z" fill="#3C3C3B"></path><path d="M3687.55 698.509V416.802V137.411C3687.55 62.6545 3628.53 0.970321 3554.65 -3.10469C3528.63 -3.11371 3502.62 -3.13174 3476.6 -3.14075C3464.87 -3.01454 3446.45 -1.34667 3425.82 7.03776C3417.79 10.3014 3398.33 19.0735 3379.53 37.8979C3363.81 53.6209 3352.32 72.4273 3345.51 92.9195C3327.59 39.5297 3278.41 0.131878 3219.89 -3.10469V-3.33008H3144.29C3066.71 -3.30303 3003.59 59.8326 3003.59 137.42V698.509C3003.59 740.359 3022.11 778.116 3051.37 803.955C3022.11 829.766 3003.59 867.505 3003.59 909.49V1470.58C3003.59 1545.33 3062.62 1607.01 3136.5 1611.1V1611.33H3212.1C3274.17 1611.31 3326.95 1570.87 3345.58 1514.97C3363.48 1568.42 3412.69 1607.86 3471.25 1611.1V1611.33H3546.85C3624.42 1611.3 3687.54 1548.17 3687.54 1470.58V1188.87V909.481C3687.54 867.622 3669.03 829.875 3639.78 804.027C3669.04 778.216 3687.55 740.486 3687.55 698.491V698.509ZM3547.85 10.1842C3617.44 10.7251 3674.05 67.7933 3674.05 137.411V344.903H3646.41C3644.1 344.903 3641.82 344.957 3639.65 345.065C3576.73 341.73 3525.28 292.054 3519.72 229.342C3519.87 156.281 3520.02 83.2188 3520.18 10.1571H3544.29L3547.85 10.1842ZM3178.19 262.474C3192.33 304.667 3225.98 337.979 3268.18 351.791C3247.24 358.598 3228.03 370.264 3212.15 386.131C3196.47 401.836 3184.98 420.606 3178.17 441.072C3164.02 398.861 3130.37 365.612 3088.16 351.845C3109.12 345.047 3128.34 333.372 3144.21 317.496C3159.76 301.953 3171.31 283.048 3178.18 262.474H3178.19ZM3184.96 474.393C3187.56 444.669 3200.35 417.045 3221.69 395.678C3244.01 373.365 3273.62 360.184 3304.94 358.571C3306.79 358.643 3308.66 358.697 3310.62 358.733H3338.32V419.119H3338.33V698.509C3338.55 710.022 3337.42 732.823 3324.78 757.426C3315.09 776.268 3302.55 788.574 3294.31 795.471C3274.32 781.353 3256.38 775.448 3245.19 772.725C3234.27 770.075 3224.46 769.164 3219.87 768.749C3206.01 767.514 3194.19 767.965 3185.4 768.749C3185.25 670.634 3185.1 572.509 3184.94 474.393H3184.96ZM3345.58 742.902C3353.53 766.64 3367.64 787.628 3386.04 803.892C3383.82 805.848 3381.64 807.859 3379.52 809.968C3363.8 825.691 3352.31 844.498 3345.5 864.99C3337.53 841.261 3323.41 820.291 3305.01 804.045C3323.47 787.763 3337.63 766.748 3345.57 742.893L3345.58 742.902ZM3185.42 782.246H3213.08C3238.95 782.462 3263.02 790.486 3283.06 804.054C3262.78 817.749 3238.36 825.754 3212.1 825.763H3185.42V782.255V782.246ZM3170.95 825.754H3143.31C3117.45 825.538 3093.37 817.514 3073.33 803.946C3093.62 790.251 3118.04 782.246 3144.29 782.237H3170.96V825.745L3170.95 825.754ZM3185.42 990.071V839.251H3212.11C3242.78 839.242 3271.16 829.334 3294.3 812.61C3302.25 819.236 3314.92 831.524 3324.75 850.619C3334.76 870.093 3337.32 887.889 3338.03 898.275C3338.13 971.283 3338.23 1044.29 3338.33 1117.3C3327.31 1117.24 3316.29 1117.2 3305.28 1117.14C3295.24 1116.62 3256.09 1113.4 3223.43 1081.56C3185.99 1045.05 3185.39 998.474 3185.42 990.071ZM3352.33 898.41C3354.88 868.614 3367.69 840.919 3389.07 819.516C3391.54 817.045 3394.11 814.728 3396.74 812.493C3407.61 820.228 3424.07 829.793 3445.75 835.248C3455.09 837.592 3463.7 838.764 3471.25 839.26H3505.7V990.08C3505.43 1001.38 3503.08 1046.17 3469.42 1080.04C3450.64 1098.93 3429.18 1107.29 3425.32 1108.79C3412.76 1113.65 3399.41 1116.5 3385.7 1117.17C3374.74 1117.22 3363.77 1117.26 3352.8 1117.31C3352.64 1044.34 3352.49 971.373 3352.33 898.41ZM3505.7 825.754H3478.06C3452.16 825.538 3428.05 817.496 3407.99 803.892C3428.81 789.81 3453.34 782.228 3479.02 782.228H3505.69V825.754H3505.7ZM3520.17 782.237H3544.45L3547.84 782.264C3573.7 782.462 3597.77 790.486 3617.81 804.045C3597.52 817.74 3573.1 825.745 3546.85 825.754H3520.17V782.228V782.237ZM3479.03 768.74C3449.07 768.74 3420.56 778.071 3396.75 795.318C3388.52 788.412 3376.01 776.115 3366.34 757.282C3353.73 732.75 3352.59 710.022 3352.8 698.509V358.724H3379.47C3381.65 358.724 3383.81 358.67 3385.76 358.589C3448.97 361.672 3500.67 411.401 3506.19 474.42C3506.35 572.527 3506.51 670.625 3506.68 768.731H3479.04L3479.03 768.74ZM3512.92 441.072C3498.77 398.861 3465.13 365.612 3422.92 351.845C3443.87 345.047 3463.09 333.372 3478.97 317.487C3494.51 301.944 3506.07 283.039 3512.94 262.465C3527.07 304.658 3560.73 337.97 3602.92 351.782C3581.99 358.589 3562.78 370.255 3546.9 386.122C3531.21 401.827 3519.73 420.597 3512.91 441.063L3512.92 441.072ZM3389.07 47.4273C3413.11 23.3919 3445.06 10.1481 3479.03 10.1481H3505.7C3505.85 83.2188 3506.01 156.281 3506.17 229.351C3503.54 258.967 3490.51 286.861 3469.43 307.948C3447.4 329.982 3418.28 343.073 3387.27 344.975C3375.79 344.948 3364.29 344.921 3352.8 344.903V137.42C3352.5 126.439 3353.44 107.75 3362.22 86.9152C3364.5 81.5059 3372.18 64.3313 3389.07 47.4363V47.4273ZM3213.08 10.1842C3222.72 10.2833 3263.92 11.7979 3298.53 44.2899C3337.73 81.0822 3338.35 129.306 3338.33 137.42V344.912H3311.66C3309.35 344.912 3307.07 344.966 3304.9 345.074C3241.97 341.739 3190.52 292.054 3184.96 229.333C3185.12 156.281 3185.27 83.2278 3185.42 10.1842H3213.08ZM3144.28 10.1661H3170.95C3171.11 83.2188 3171.26 156.272 3171.42 229.324C3168.81 258.949 3155.77 286.861 3134.68 307.948C3112.65 329.982 3083.53 343.073 3052.53 344.975C3040.71 344.948 3028.9 344.921 3017.09 344.903V137.42C3017.09 67.2794 3074.15 10.1932 3144.28 10.1661ZM3017.09 698.509V358.724H3044.72C3046.9 358.724 3049.05 358.67 3051 358.589C3114.22 361.672 3165.91 411.401 3171.43 474.42C3171.45 572.527 3171.48 670.643 3171.49 768.749H3144.28C3113.61 768.758 3085.22 778.666 3062.08 795.39C3034.59 771.995 3017.09 737.195 3017.09 698.509ZM3062.06 812.538C3072.97 820.291 3089.48 829.856 3111.22 835.293C3120.46 837.601 3129 838.755 3136.5 839.26H3170.95V990.08C3170.57 1001.99 3167.77 1046.72 3134.67 1080.04C3118.61 1096.21 3100.58 1104.5 3096.39 1106.35C3082.64 1112.47 3067.81 1116.13 3052.52 1117.06C3040.71 1117.04 3028.9 1117.02 3017.08 1116.99V909.5C3017.08 870.688 3034.57 835.906 3062.05 812.538H3062.06ZM3143.31 1597.82C3073.71 1597.27 3017.09 1540.2 3017.09 1470.59V1130.8H3044.72C3046.76 1130.8 3048.77 1130.75 3050.61 1130.69H3050.93C3114.19 1134.2 3165.94 1191.59 3171.43 1264.31L3171.45 1264.59C3171.76 1268.73 3171.92 1272.98 3171.92 1277.2V1597.84H3143.3L3143.31 1597.82ZM3212.1 1597.83H3185.42V1277.19C3185.42 1272.72 3185.26 1268.23 3184.94 1263.83L3184.92 1263.55C3180.05 1197.76 3140.05 1143.42 3086.75 1124.37C3108.25 1117.64 3127.98 1105.81 3144.22 1089.57C3159.76 1074.02 3171.32 1055.12 3178.19 1034.54C3196.19 1088.27 3245.83 1127.62 3304.43 1130.62H3304.84C3306.73 1130.71 3308.63 1130.77 3310.63 1130.79H3338.33V1191.18H3338.33V1470.58C3338.33 1474.27 3338.52 1477.91 3338.8 1481.53C3333.23 1546.56 3278.55 1597.81 3212.11 1597.83H3212.1ZM3478.06 1597.82C3412.14 1597.3 3357.9 1546.07 3352.34 1481.52C3352.62 1477.9 3352.8 1474.27 3352.8 1470.59V1130.8H3379.47C3381.7 1130.8 3383.89 1130.75 3385.87 1130.67H3386.2C3421.21 1128.99 3454.16 1114.4 3478.98 1089.58C3494.52 1074.03 3506.08 1055.13 3512.95 1034.55C3527.24 1077.22 3561.49 1110.79 3604.34 1124.31C3582.71 1132.02 3562.88 1145.6 3546.6 1164.24C3520.23 1194.47 3505.72 1234.58 3505.72 1277.19V1597.83H3478.08L3478.06 1597.82ZM3546.85 1597.83H3519.2V1277.19C3518.7 1268.03 3516.69 1215.35 3556.76 1173.11C3589.76 1138.34 3630.95 1132.07 3642.7 1130.74C3655.48 1129.28 3666.33 1129.9 3674.05 1130.79V1194.24V1470.58C3674.05 1540.72 3617 1597.81 3546.85 1597.82V1597.83ZM3674.05 909.49V1116.98C3665.52 1118.01 3653.65 1118.7 3639.71 1117.14C3627.25 1115.75 3589 1111.63 3558.18 1081.57C3520.75 1045.07 3520.12 998.501 3520.16 990.071V839.251H3546.85C3577.52 839.242 3605.91 829.334 3629.05 812.601C3649.02 832.832 3671.14 863.178 3673.77 901.746C3673.96 904.361 3674.04 906.939 3674.04 909.481L3674.05 909.49ZM3554.59 769.444C3543.12 769.209 3531.65 768.975 3520.18 768.74C3520.02 670.625 3519.87 572.518 3519.72 474.402C3522.31 444.669 3535.11 417.045 3556.45 395.678C3578.76 373.365 3608.38 360.184 3639.7 358.571C3641.54 358.643 3643.41 358.697 3645.38 358.733H3674.05V422.175V698.518C3674.05 737.321 3656.56 772.112 3629.08 795.471C3618.71 787.844 3602.2 777.873 3580.03 772.743C3570.64 770.57 3562.02 769.678 3554.58 769.444H3554.59Z" fill="#3C3C3B"></path><path d="M4359 698.509V416.802V137.411C4359 62.6545 4299.97 0.970321 4226.1 -3.10469C4200.08 -3.11371 4174.06 -3.13174 4148.04 -3.14075C4136.31 -3.01454 4117.89 -1.34667 4097.27 7.03776C4089.23 10.3014 4069.78 19.0735 4050.97 37.8979C4035.26 53.6209 4023.76 72.4273 4016.96 92.9195C3999.03 39.5297 3949.85 0.131878 3891.33 -3.10469V-3.33008H3815.74C3738.15 -3.30303 3675.03 59.8326 3675.03 137.42V698.509C3675.03 740.359 3693.55 778.116 3722.82 803.955C3693.55 829.766 3675.03 867.505 3675.03 909.49V1470.58C3675.03 1545.33 3734.07 1607.01 3807.95 1611.1V1611.33H3883.54C3945.62 1611.31 3998.39 1570.87 4017.03 1514.97C4034.92 1568.42 4084.13 1607.86 4142.7 1611.1V1611.33H4218.29C4295.87 1611.3 4358.99 1548.17 4358.99 1470.58V1188.87V909.481C4358.99 867.622 4340.48 829.875 4311.22 804.027C4340.49 778.216 4359 740.486 4359 698.491V698.509ZM4219.29 10.1842C4288.88 10.7251 4345.5 67.7933 4345.5 137.411V344.903H4317.86C4315.55 344.903 4313.27 344.957 4311.1 345.065C4248.18 341.73 4196.73 292.054 4191.16 229.342C4191.32 156.281 4191.47 83.2188 4191.62 10.1571H4215.74L4219.29 10.1842ZM3849.64 262.474C3863.77 304.667 3897.43 337.979 3939.62 351.791C3918.69 358.598 3899.47 370.264 3883.6 386.131C3867.91 401.836 3856.43 420.606 3849.61 441.072C3835.46 398.861 3801.82 365.612 3759.61 351.845C3780.56 345.047 3799.78 333.372 3815.66 317.496C3831.2 301.953 3842.76 283.048 3849.63 262.474H3849.64ZM3856.41 474.393C3859 444.669 3871.8 417.045 3893.14 395.678C3915.46 373.365 3945.07 360.184 3976.39 358.571C3978.23 358.643 3980.1 358.697 3982.07 358.733H4009.76V419.119H4009.77V698.509C4010 710.022 4008.87 732.823 3996.22 757.426C3986.54 776.268 3974 788.574 3965.76 795.471C3945.77 781.353 3927.83 775.448 3916.63 772.725C3905.71 770.075 3895.9 769.164 3891.32 768.749C3877.45 767.514 3865.63 767.965 3856.85 768.749C3856.7 670.634 3856.54 572.509 3856.39 474.393H3856.41ZM4017.03 742.902C4024.98 766.64 4039.09 787.628 4057.48 803.892C4055.26 805.848 4053.08 807.859 4050.96 809.968C4035.25 825.691 4023.75 844.498 4016.95 864.99C4008.98 841.261 3994.86 820.291 3976.46 804.045C3994.91 787.763 4009.08 766.748 4017.02 742.893L4017.03 742.902ZM3856.87 782.246H3884.53C3910.39 782.462 3934.46 790.486 3954.51 804.054C3934.22 817.749 3909.81 825.754 3883.54 825.763H3856.87V782.255V782.246ZM3842.4 825.754H3814.76C3788.89 825.538 3764.82 817.514 3744.78 803.946C3765.06 790.251 3789.49 782.246 3815.74 782.237H3842.41V825.745L3842.4 825.754ZM3856.87 990.071V839.251H3883.55C3914.22 839.242 3942.61 829.334 3965.75 812.61C3973.69 819.236 3986.37 831.524 3996.19 850.619C4006.21 870.093 4008.76 887.889 4009.47 898.275C4009.57 971.283 4009.67 1044.29 4009.77 1117.3C3998.75 1117.24 3987.74 1117.2 3976.73 1117.14C3966.69 1116.62 3927.53 1113.4 3894.88 1081.56C3857.44 1045.05 3856.83 998.474 3856.87 990.071ZM4023.77 898.41C4026.32 868.614 4039.13 840.919 4060.52 819.516C4062.99 817.045 4065.56 814.728 4068.18 812.493C4079.05 820.228 4095.52 829.793 4117.2 835.248C4126.53 837.592 4135.15 838.764 4142.7 839.26H4177.14V990.08C4176.87 1001.38 4174.52 1046.17 4140.87 1080.04C4122.09 1098.93 4100.63 1107.29 4096.76 1108.79C4084.2 1113.65 4070.85 1116.5 4057.15 1117.17C4046.18 1117.22 4035.21 1117.26 4024.25 1117.31C4024.09 1044.34 4023.93 971.373 4023.77 898.41ZM4177.14 825.754H4149.5C4123.6 825.538 4099.49 817.496 4079.43 803.892C4100.26 789.81 4124.78 782.228 4150.47 782.228H4177.13V825.754H4177.14ZM4191.61 782.237H4215.89L4219.28 782.264C4245.15 782.462 4269.22 790.486 4289.25 804.045C4268.97 817.74 4244.54 825.745 4218.29 825.754H4191.61V782.228V782.237ZM4150.48 768.74C4120.52 768.74 4092 778.071 4068.19 795.318C4059.96 788.412 4047.46 776.115 4037.78 757.282C4025.18 732.75 4024.03 710.022 4024.25 698.509V358.724H4050.92C4053.1 358.724 4055.25 358.67 4057.2 358.589C4120.42 361.672 4172.11 411.401 4177.63 474.42C4177.79 572.527 4177.95 670.625 4178.13 768.731H4150.48L4150.48 768.74ZM4184.37 441.072C4170.22 398.861 4136.57 365.612 4094.36 351.845C4115.32 345.047 4134.54 333.372 4150.41 317.487C4165.96 301.944 4177.51 283.039 4184.38 262.465C4198.52 304.658 4232.17 337.97 4274.37 351.782C4253.43 358.589 4234.22 370.255 4218.34 386.122C4202.66 401.827 4191.17 420.597 4184.36 441.063L4184.37 441.072ZM4060.52 47.4273C4084.55 23.3919 4116.51 10.1481 4150.48 10.1481H4177.14C4177.3 83.2188 4177.45 156.281 4177.61 229.351C4174.99 258.967 4161.95 286.861 4140.87 307.948C4118.84 329.982 4089.72 343.073 4058.72 344.975C4047.23 344.948 4035.74 344.921 4024.25 344.903V137.42C4023.94 126.439 4024.89 107.75 4033.66 86.9152C4035.94 81.5059 4043.62 64.3313 4060.52 47.4363V47.4273ZM3884.53 10.1842C3894.16 10.2833 3935.37 11.7979 3969.98 44.2899C4009.18 81.0822 4009.8 129.306 4009.77 137.42V344.912H3983.1C3980.79 344.912 3978.51 344.966 3976.34 345.074C3913.41 341.739 3861.96 292.054 3856.41 229.333C3856.56 156.281 3856.71 83.2278 3856.87 10.1842H3884.53ZM3815.73 10.1661H3842.4C3842.55 83.2188 3842.7 156.272 3842.87 229.324C3840.25 258.949 3827.22 286.861 3806.13 307.948C3784.09 329.982 3754.97 343.073 3723.97 344.975C3712.16 344.948 3700.35 344.921 3688.53 344.903V137.42C3688.53 67.2794 3745.6 10.1932 3815.73 10.1661ZM3688.53 698.509V358.724H3716.16C3718.34 358.724 3720.5 358.67 3722.45 358.589C3785.66 361.672 3837.36 411.401 3842.88 474.42C3842.89 572.527 3842.92 670.643 3842.94 768.749H3815.73C3785.06 768.758 3756.67 778.666 3733.53 795.39C3706.04 771.995 3688.53 737.195 3688.53 698.509ZM3733.51 812.538C3744.42 820.291 3760.92 829.856 3782.66 835.293C3791.9 837.601 3800.45 838.755 3807.95 839.26H3842.4V990.08C3842.01 1001.99 3839.22 1046.72 3806.12 1080.04C3790.05 1096.21 3772.02 1104.5 3767.83 1106.35C3754.08 1112.47 3739.25 1116.13 3723.96 1117.06C3712.15 1117.04 3700.34 1117.02 3688.52 1116.99V909.5C3688.52 870.688 3706.01 835.906 3733.5 812.538H3733.51ZM3814.76 1597.82C3745.16 1597.27 3688.53 1540.2 3688.53 1470.59V1130.8H3716.16C3718.21 1130.8 3720.21 1130.75 3722.06 1130.69H3722.37C3785.64 1134.2 3837.39 1191.59 3842.88 1264.31L3842.89 1264.59C3843.21 1268.73 3843.36 1272.98 3843.36 1277.2V1597.84H3814.75L3814.76 1597.82ZM3883.54 1597.83H3856.87V1277.19C3856.87 1272.72 3856.71 1268.23 3856.38 1263.83L3856.36 1263.55C3851.49 1197.76 3811.49 1143.42 3758.19 1124.37C3779.69 1117.64 3799.43 1105.81 3815.67 1089.57C3831.21 1074.02 3842.77 1055.12 3849.64 1034.54C3867.63 1088.27 3917.27 1127.62 3975.87 1130.62H3976.29C3978.17 1130.71 3980.07 1130.77 3982.07 1130.79H4009.77V1191.18H4009.78V1470.58C4009.78 1474.27 4009.96 1477.91 4010.25 1481.53C4004.68 1546.56 3950 1597.81 3883.55 1597.83H3883.54ZM4149.5 1597.82C4083.59 1597.3 4029.34 1546.07 4023.78 1481.52C4024.06 1477.9 4024.25 1474.27 4024.25 1470.59V1130.8H4050.92C4053.14 1130.8 4055.34 1130.75 4057.32 1130.67H4057.64C4092.65 1128.99 4125.6 1114.4 4150.42 1089.58C4165.96 1074.03 4177.52 1055.13 4184.39 1034.55C4198.68 1077.22 4232.93 1110.79 4275.78 1124.31C4254.15 1132.02 4234.33 1145.6 4218.05 1164.24C4191.68 1194.47 4177.16 1234.58 4177.16 1277.19V1597.83H4149.52L4149.5 1597.82ZM4218.3 1597.83H4190.65V1277.19C4190.14 1268.03 4188.13 1215.35 4228.21 1173.11C4261.2 1138.34 4302.4 1132.07 4314.14 1130.74C4326.93 1129.28 4337.77 1129.9 4345.5 1130.79V1194.24V1470.58C4345.5 1540.72 4288.44 1597.81 4218.3 1597.82V1597.83ZM4345.49 909.49V1116.98C4336.96 1118.01 4325.1 1118.7 4311.15 1117.14C4298.69 1115.75 4260.45 1111.63 4229.62 1081.57C4192.19 1045.07 4191.57 998.501 4191.6 990.071V839.251H4218.29C4248.96 839.242 4277.35 829.334 4300.49 812.601C4320.46 832.832 4342.59 863.178 4345.22 901.746C4345.4 904.361 4345.48 906.939 4345.48 909.481L4345.49 909.49ZM4226.03 769.444C4214.57 769.209 4203.09 768.975 4191.62 768.74C4191.47 670.625 4191.32 572.518 4191.16 474.402C4193.75 444.669 4206.55 417.045 4227.89 395.678C4250.21 373.365 4279.82 360.184 4311.14 358.571C4312.99 358.643 4314.86 358.697 4316.82 358.733H4345.49V422.175V698.518C4345.49 737.321 4328 772.112 4300.52 795.471C4290.15 787.844 4273.65 777.873 4251.48 772.743C4242.08 770.57 4233.46 769.678 4226.03 769.444H4226.03Z" fill="#3C3C3B"></path></g><defs><clipPath id="clip0_4291_2599"><rect width="4005.36" height="1608" fill="white"></rect></clipPath></defs></svg>